<svg width="283" height="58" viewBox="0 0 283 58" fill="none" xmlns="http://www.w3.org/2000/svg">
<path d="M6 5H277V49H6V5Z" fill="#006632"/>
<path d="M4.59882 4.51185V0H278.351V4.79701H283V49.3691H278.351V54.0002H4.59882V49.8367H0V4.51185H4.59882ZM6 2V6H2V48H6V52H277V48H281V6H277V2H6Z" fill="black"/>
<path d="M4.80664 53.0001H277.978V55.9685H4.80664V53.0001Z" fill="#181818" fill-opacity="0.25"/>
<path d="M6 49H277V52H6V49Z" fill="#042F1A"/>
<path d="M6 2H277V5H6V2Z" fill="#188128"/>
<path d="M277 6H281V48H277V6Z" fill="#0A5C33"/>
<path d="M2 6H6V48H2V6Z" fill="#0A5C33"/>
</svg>
