<svg width="116" height="101" viewBox="0 0 116 101" fill="none" xmlns="http://www.w3.org/2000/svg">
<path d="M115.429 93.7858C115.429 97.7762 112.205 101 108.214 101C94.7327 101 83.9789 94.169 75.164 85.3541C68.8514 79.0416 63.1026 71.2637 57.7144 63.4181L57.3311 62.8545C55.505 60.1717 53.7014 57.4889 51.943 54.8511L51.7175 54.4904C50.8157 53.1378 49.9365 51.8076 49.0347 50.4775C45.8784 45.7656 42.7898 41.2793 39.6787 37.1085L39.6787 63.869C41.347 61.6596 42.9927 59.3375 44.661 56.9478L45.7206 58.5259L46.1715 59.2023C48.4485 62.6065 50.8157 66.1686 53.2956 69.7306C49.2151 75.3668 44.8865 80.755 40.2874 85.3766C31.4499 94.169 20.6961 101 7.21436 101C3.22395 101 7.202e-05 97.7762 7.21944e-05 93.7858C7.23689e-05 89.7954 3.22396 86.5715 7.21436 86.5715L7.21436 14.4286C3.22396 14.4286 7.58042e-05 11.2047 7.59786e-05 7.21428C7.6153e-05 3.22388 3.22396 -4.90463e-06 7.21436 -4.7302e-06C20.6961 -4.1409e-06 31.4499 6.83103 40.2648 15.646C46.5773 21.9585 52.3262 29.7364 57.7144 37.5819C63.1026 29.7364 68.8289 21.9585 75.164 15.646C83.9789 6.83103 94.7327 -9.04651e-07 108.214 -3.15347e-07C112.205 -1.40921e-07 115.429 3.22389 115.429 7.21429C115.429 11.2047 112.205 14.4286 108.214 14.4286L108.214 86.5715C112.205 86.5715 115.429 89.7954 115.429 93.7858ZM28.8572 76.3362L28.8572 24.6638C26.4675 22.3868 24.0552 20.4705 21.6429 18.915L21.6429 82.0851C24.0552 80.5521 26.4675 78.6358 28.8572 76.3362ZM86.5716 24.6639L86.5715 76.3362C88.9838 78.6132 91.3736 80.5295 93.7858 82.0851L93.7858 18.915C91.3736 20.448 88.9838 22.3643 86.5716 24.6639ZM75.7501 37.1536C72.639 41.3018 69.5503 45.8107 66.3941 50.5226C69.5503 55.2344 72.639 59.7208 75.7501 63.8916L75.7501 37.131L75.7501 37.1536Z" fill="url(#paint0_linear_325_12)"/>
<defs>
<linearGradient id="paint0_linear_325_12" x1="57.7144" y1="18.9644" x2="57.7144" y2="101" gradientUnits="userSpaceOnUse">
<stop stop-color="#60FFAE"/>
<stop offset="1" stop-color="#00D267"/>
</linearGradient>
</defs>
</svg>
