<svg width="311" height="310" viewBox="0 0 311 310" fill="none" xmlns="http://www.w3.org/2000/svg">
<rect x="0.977539" y="0.540771" width="309.459" height="309.459" rx="35" fill="#111111"/>
<path d="M249.813 226.225C249.813 232.744 244.563 238.011 238.063 238.011C216.106 238.011 198.591 226.851 184.234 212.451C173.953 202.138 164.589 189.432 155.813 176.615L155.189 175.694C152.215 171.311 149.278 166.928 146.413 162.619L146.046 162.03C144.578 159.82 143.146 157.647 141.677 155.474C136.536 147.777 131.506 140.447 126.438 133.634L126.438 177.351C129.156 173.742 131.836 169.948 134.553 166.044L136.279 168.623L137.013 169.727C140.722 175.289 144.578 181.108 148.617 186.927C141.971 196.135 134.921 204.937 127.43 212.488C113.036 226.851 95.5213 238.011 73.5635 238.011C67.0643 238.011 61.8135 232.744 61.8135 226.225C61.8135 219.706 67.0643 214.44 73.5635 214.44L73.5635 96.5824C67.0643 96.5824 61.8135 91.3157 61.8135 84.7967C61.8135 78.2777 67.0643 73.011 73.5635 73.011C95.5213 73.011 113.036 84.1706 127.393 98.5712C137.674 108.884 147.038 121.59 155.813 134.407C164.589 121.59 173.916 108.884 184.234 98.5713C198.591 84.1706 216.106 73.011 238.063 73.011C244.563 73.011 249.813 78.2777 249.813 84.7967C249.813 91.3157 244.563 96.5824 238.063 96.5824L238.063 214.44C244.563 214.44 249.813 219.706 249.813 226.225ZM108.813 197.719L108.813 113.303C104.921 109.584 100.992 106.453 97.0635 103.912L97.0635 207.11C100.992 204.606 104.921 201.475 108.813 197.719ZM202.813 113.303L202.813 197.719C206.742 201.438 210.635 204.569 214.563 207.11L214.563 103.912C210.635 106.416 206.742 109.547 202.813 113.303ZM185.188 133.707C180.121 140.484 175.091 147.85 169.95 155.548C175.091 163.245 180.121 170.575 185.188 177.388L185.188 133.671L185.188 133.707Z" fill="url(#paint0_linear_325_40)"/>
<defs>
<linearGradient id="paint0_linear_325_40" x1="155.813" y1="103.992" x2="155.813" y2="238.011" gradientUnits="userSpaceOnUse">
<stop stop-color="#60FFAE"/>
<stop offset="1" stop-color="#00D267"/>
</linearGradient>
</defs>
</svg>
